<svg width="262" height="68" viewBox="0 0 262 68" fill="none" xmlns="http://www.w3.org/2000/svg">
<g clip-path="url(#clip0)">
<circle cx="34" cy="34" r="24" fill="url(#paint0_linear)"/>
<ellipse cx="34" cy="38.728" rx="23.52" ry="3.768" fill="url(#paint1_linear)"/>
<path d="M33.9979 18.64C27.8186 18.64 22 29.0581 22 37.1328C22 45.9108 28.0261 49.84 33.9979 49.84C39.9718 49.84 46 45.9108 46 37.1328C46 29.0581 40.18 18.64 33.9979 18.64Z" fill="url(#paint2_linear)"/>
<path d="M57.52 38.8C56.8788 40.8436 46.5937 42.496 34 42.496C21.4062 42.496 11.1212 40.8436 10.48 38.8C12.7655 49.7658 22.4275 58 34 58C45.5724 58 55.2345 49.7658 57.52 38.8Z" fill="url(#paint3_linear)"/>
</g>
<path d="M70.907 50.96L83.687 17.12H87.107L74.327 50.96H70.907Z" fill="#6B7280"/>
<path d="M103.689 47V20.72H108.009L116.037 43.22C115.989 42.62 115.929 41.888 115.857 41.024C115.809 40.136 115.761 39.212 115.713 38.252C115.689 37.268 115.677 36.344 115.677 35.48V20.72H118.809V47H114.489L106.497 24.5C106.545 25.076 106.593 25.808 106.641 26.696C106.689 27.56 106.725 28.484 106.749 29.468C106.797 30.428 106.821 31.352 106.821 32.24V47H103.689ZM132.835 47.36C131.275 47.36 129.907 47.048 128.731 46.424C127.579 45.8 126.679 44.924 126.031 43.796C125.407 42.644 125.095 41.312 125.095 39.8V34.4C125.095 32.864 125.407 31.532 126.031 30.404C126.679 29.276 127.579 28.4 128.731 27.776C129.907 27.152 131.275 26.84 132.835 26.84C134.395 26.84 135.751 27.152 136.903 27.776C138.079 28.4 138.979 29.276 139.603 30.404C140.251 31.532 140.575 32.864 140.575 34.4V37.892H128.263V39.8C128.263 41.36 128.659 42.56 129.451 43.4C130.243 44.216 131.371 44.624 132.835 44.624C134.083 44.624 135.091 44.408 135.859 43.976C136.627 43.52 137.095 42.848 137.263 41.96H140.503C140.287 43.616 139.471 44.936 138.055 45.92C136.663 46.88 134.923 47.36 132.835 47.36ZM128.263 35.444H137.407V34.4C137.407 32.84 137.011 31.64 136.219 30.8C135.451 29.96 134.323 29.54 132.835 29.54C131.371 29.54 130.243 29.96 129.451 30.8C128.659 31.64 128.263 32.84 128.263 34.4V35.444ZM153.809 47.288C151.769 47.288 150.149 46.832 148.949 45.92C147.749 44.984 147.053 43.724 146.861 42.14H150.101C150.245 42.836 150.629 43.388 151.253 43.796C151.901 44.204 152.753 44.408 153.809 44.408H155.321C156.593 44.408 157.541 44.156 158.165 43.652C158.789 43.124 159.101 42.428 159.101 41.564C159.101 39.932 157.985 38.936 155.753 38.576L153.089 38.144C151.145 37.808 149.693 37.208 148.733 36.344C147.797 35.456 147.329 34.172 147.329 32.492C147.329 30.716 147.893 29.348 149.021 28.388C150.149 27.404 151.841 26.912 154.097 26.912H155.465C157.361 26.912 158.885 27.356 160.037 28.244C161.189 29.132 161.885 30.332 162.125 31.844H158.885C158.741 31.22 158.381 30.728 157.805 30.368C157.229 29.984 156.449 29.792 155.465 29.792H154.097C152.873 29.792 151.973 30.02 151.397 30.476C150.845 30.932 150.569 31.616 150.569 32.528C150.569 33.344 150.809 33.944 151.289 34.328C151.769 34.712 152.525 34.988 153.557 35.156L156.221 35.588C158.357 35.924 159.905 36.548 160.865 37.46C161.849 38.372 162.341 39.692 162.341 41.42C162.341 43.244 161.753 44.684 160.577 45.74C159.425 46.772 157.673 47.288 155.321 47.288H153.809ZM178.167 47C176.463 47 175.131 46.544 174.171 45.632C173.235 44.72 172.767 43.436 172.767 41.78V30.152H167.187V27.2H172.767V21.62H176.007V27.2H183.927V30.152H176.007V41.78C176.007 43.292 176.727 44.048 178.167 44.048H183.567V47H178.167ZM219.179 47.36C216.731 47.36 214.859 46.688 213.563 45.344C212.267 43.976 211.619 42.128 211.619 39.8V20.72H214.859V39.8C214.859 41.24 215.207 42.38 215.903 43.22C216.623 44.06 217.715 44.48 219.179 44.48C220.619 44.48 221.699 44.06 222.419 43.22C223.139 42.38 223.499 41.24 223.499 39.8V20.72H226.739V39.8C226.739 42.152 226.091 44 224.795 45.344C223.523 46.688 221.651 47.36 219.179 47.36ZM233.745 47V44.048H239.109V23.672H233.745V20.72H247.785V23.672H242.421V44.048H247.785V47H233.745Z" fill="#F3F4F6"/>
<defs>
<linearGradient id="paint0_linear" x1="34" y1="10" x2="34" y2="42.4" gradientUnits="userSpaceOnUse">
<stop stop-color="#8B5CF6"/>
<stop offset="1" stop-color="#6D28D9"/>
</linearGradient>
<linearGradient id="paint1_linear" x1="34" y1="34.96" x2="34" y2="42.496" gradientUnits="userSpaceOnUse">
<stop stop-color="#C4B5FD"/>
<stop offset="1" stop-color="#A78BFA"/>
</linearGradient>
<linearGradient id="paint2_linear" x1="34" y1="18.64" x2="34" y2="49.84" gradientUnits="userSpaceOnUse">
<stop stop-color="#F9FAFB"/>
<stop offset="1" stop-color="#F3F4F6"/>
</linearGradient>
<linearGradient id="paint3_linear" x1="34" y1="38.8" x2="34" y2="58" gradientUnits="userSpaceOnUse">
<stop stop-color="#8B5CF6"/>
<stop offset="1" stop-color="#6D28D9"/>
</linearGradient>
<clipPath id="clip0">
<path d="M10 34C10 20.7452 20.7452 10 34 10V10C47.2548 10 58 20.7452 58 34V34C58 47.2548 47.2548 58 34 58V58C20.7452 58 10 47.2548 10 34V34Z" fill="white"/>
</clipPath>
</defs>
</svg>
