<svg width="355" height="104" viewBox="0 0 355 104" fill="none" xmlns="http://www.w3.org/2000/svg">
  <style>
    .text {
      fill: #111827;
    }

    @media (prefers-color-scheme: dark) {
      .text {
        fill: #F3F4F6;
      }
    }
  </style>
  <g clip-path="url(#clip0)">
    <ellipse cx="52" cy="52" rx="32" ry="32" fill="url(#paint0_linear)" />
    <ellipse cx="52" cy="58.304" rx="31.36" ry="5.024" fill="url(#paint1_linear)" />
    <path
      d="M51.9972 31.52C43.7581 31.52 36 45.4108 36 56.1771C36 67.8811 44.0348 73.12 51.9972 73.12C59.9624 73.12 68 67.8811 68 56.1771C68 45.4108 60.24 31.52 51.9972 31.52Z"
      fill="url(#paint2_linear)" />
    <path
      d="M83.36 58.4C82.5051 61.1249 68.7917 63.328 52 63.328C35.2083 63.328 21.4949 61.1249 20.64 58.4C23.6874 73.0211 36.5701 84 52 84C67.43 84 80.3127 73.0211 83.36 58.4Z"
      fill="url(#paint3_linear)" />
  </g>
  <path d="M97.7094 74.78L114.749 29.66H119.309L102.269 74.78H97.7094Z" fill="#6B7280" />
  <path
    d="M137.586 69.5V34.46H143.346L154.05 64.46C153.986 63.66 153.906 62.684 153.81 61.532C153.746 60.348 153.682 59.116 153.618 57.836C153.586 56.524 153.57 55.292 153.57 54.14V34.46H157.746V69.5H151.986L141.33 39.5C141.394 40.268 141.458 41.244 141.522 42.428C141.586 43.58 141.634 44.812 141.666 46.124C141.73 47.404 141.762 48.636 141.762 49.82V69.5H137.586ZM176.447 69.98C174.367 69.98 172.543 69.564 170.975 68.732C169.439 67.9 168.239 66.732 167.375 65.228C166.543 63.692 166.127 61.916 166.127 59.9V52.7C166.127 50.652 166.543 48.876 167.375 47.372C168.239 45.868 169.439 44.7 170.975 43.868C172.543 43.036 174.367 42.62 176.447 42.62C178.527 42.62 180.335 43.036 181.871 43.868C183.439 44.7 184.639 45.868 185.471 47.372C186.335 48.876 186.767 50.652 186.767 52.7V57.356H170.351V59.9C170.351 61.98 170.879 63.58 171.935 64.7C172.991 65.788 174.495 66.332 176.447 66.332C178.111 66.332 179.455 66.044 180.479 65.468C181.503 64.86 182.127 63.964 182.351 62.78H186.671C186.383 64.988 185.295 66.748 183.407 68.06C181.551 69.34 179.231 69.98 176.447 69.98ZM170.351 54.092H182.543V52.7C182.543 50.62 182.015 49.02 180.959 47.9C179.935 46.78 178.431 46.22 176.447 46.22C174.495 46.22 172.991 46.78 171.935 47.9C170.879 49.02 170.351 50.62 170.351 52.7V54.092ZM204.412 69.884C201.692 69.884 199.532 69.276 197.932 68.06C196.332 66.812 195.404 65.132 195.148 63.02H199.468C199.66 63.948 200.172 64.684 201.004 65.228C201.868 65.772 203.004 66.044 204.412 66.044H206.428C208.124 66.044 209.388 65.708 210.22 65.036C211.052 64.332 211.468 63.404 211.468 62.252C211.468 60.076 209.98 58.748 207.004 58.268L203.452 57.692C200.86 57.244 198.924 56.444 197.644 55.292C196.396 54.108 195.772 52.396 195.772 50.156C195.772 47.788 196.524 45.964 198.028 44.684C199.532 43.372 201.788 42.716 204.796 42.716H206.62C209.148 42.716 211.18 43.308 212.716 44.492C214.252 45.676 215.18 47.276 215.5 49.292H211.18C210.988 48.46 210.508 47.804 209.74 47.324C208.972 46.812 207.932 46.556 206.62 46.556H204.796C203.164 46.556 201.964 46.86 201.196 47.468C200.46 48.076 200.092 48.988 200.092 50.204C200.092 51.292 200.412 52.092 201.052 52.604C201.692 53.116 202.7 53.484 204.076 53.708L207.628 54.284C210.476 54.732 212.54 55.564 213.82 56.78C215.132 57.996 215.788 59.756 215.788 62.06C215.788 64.492 215.004 66.412 213.436 67.82C211.9 69.196 209.564 69.884 206.428 69.884H204.412ZM236.889 69.5C234.617 69.5 232.841 68.892 231.561 67.676C230.313 66.46 229.689 64.748 229.689 62.54V47.036H222.249V43.1H229.689V35.66H234.009V43.1H244.569V47.036H234.009V62.54C234.009 64.556 234.969 65.564 236.889 65.564H244.089V69.5H236.889ZM291.572 69.98C288.308 69.98 285.812 69.084 284.084 67.292C282.356 65.468 281.492 63.004 281.492 59.9V34.46H285.812V59.9C285.812 61.82 286.276 63.34 287.204 64.46C288.164 65.58 289.62 66.14 291.572 66.14C293.492 66.14 294.932 65.58 295.892 64.46C296.852 63.34 297.332 61.82 297.332 59.9V34.46H301.652V59.9C301.652 63.036 300.788 65.5 299.06 67.292C297.364 69.084 294.868 69.98 291.572 69.98ZM310.993 69.5V65.564H318.145V38.396H310.993V34.46H329.713V38.396H322.561V65.564H329.713V69.5H310.993Z"
    class="text" />
  <defs>
    <linearGradient id="paint0_linear" x1="52" y1="20" x2="52" y2="63.2" gradientUnits="userSpaceOnUse">
      <stop stop-color="#8B5CF6" />
      <stop offset="1" stop-color="#6D28D9" />
    </linearGradient>
    <linearGradient id="paint1_linear" x1="52" y1="53.28" x2="52" y2="63.328" gradientUnits="userSpaceOnUse">
      <stop stop-color="#C4B5FD" />
      <stop offset="1" stop-color="#A78BFA" />
    </linearGradient>
    <linearGradient id="paint2_linear" x1="52" y1="31.52" x2="52" y2="73.12" gradientUnits="userSpaceOnUse">
      <stop stop-color="#F9FAFB" />
      <stop offset="1" stop-color="#F3F4F6" />
    </linearGradient>
    <linearGradient id="paint3_linear" x1="52" y1="58.4" x2="52" y2="84" gradientUnits="userSpaceOnUse">
      <stop stop-color="#8B5CF6" />
      <stop offset="1" stop-color="#6D28D9" />
    </linearGradient>
    <clipPath id="clip0">
      <path
        d="M20 52C20 34.3269 34.3269 20 52 20C69.6731 20 84 34.3269 84 52C84 69.6731 69.6731 84 52 84C34.3269 84 20 69.6731 20 52Z"
        fill="white" />
    </clipPath>
  </defs>
</svg>
